<svg id="Layer_1" enable-background="new 0 0 512 512" height="512" viewBox="0 0 512 512" width="512" xmlns="http://www.w3.org/2000/svg"><g><g><path clip-rule="evenodd" d="m419.689 405.089 42.405 22.45 42.405-22.45v-99.411-99.383-99.411l-87.277-12.302-93.938 12.302v47.225c118.855 112.025 48.841 156.727 96.405 250.98z" fill="#f9f6f6" fill-rule="evenodd"/></g><g><path clip-rule="evenodd" d="m323.285 106.883h181.215v-8.787c0-49.833-40.761-90.596-90.593-90.596s-90.621 40.762-90.621 90.596v8.787z" fill="#ff8086" fill-rule="evenodd"/></g><g><path clip-rule="evenodd" d="m397.155 9.059c41.895 7.909 73.841 44.929 73.841 89.037v8.787h33.504v-8.787c0-49.833-40.761-90.596-90.593-90.596-5.726 0-11.338.539-16.752 1.559z" fill="#e5646e" fill-rule="evenodd"/></g><g><path clip-rule="evenodd" d="m470.995 106.883v99.411 99.383 99.412h33.505v-99.412-99.383-99.411z" fill="#dddaec" fill-rule="evenodd"/></g><g><path clip-rule="evenodd" d="m414.616 504.5h84.385c3.033 0 5.499-2.466 5.499-5.499v-93.912h-43.624-41.186v63.865 30.473c-.001 2.777-2.268 5.073-5.074 5.073z" fill="#ff8086" fill-rule="evenodd"/></g><g><path clip-rule="evenodd" d="m470.995 405.089v93.912c0 3.033-2.466 5.499-5.499 5.499h33.505c3.033 0 5.499-2.466 5.499-5.499v-93.912z" fill="#e5646e" fill-rule="evenodd"/></g><g><path clip-rule="evenodd" d="m419.689 468.953v-63.865-116.504l-49.095-77.811c-6.86-10.828-5.868-10.517-17.716-16.781l-29.593-15.619-83.393-44.022c-6.888-3.628-5.187-3.628-12.075 0l-112.986 59.641c-11.849 6.265-10.856 5.953-17.716 16.781l-49.095 77.811v180.369l185.834 35.547z" fill="#ff8086" fill-rule="evenodd"/></g><g><path clip-rule="evenodd" d="m233.854 281.781c24.264 0 43.908-19.673 43.908-43.909s-19.644-43.909-43.908-43.909c-24.236 0-43.879 19.673-43.879 43.909s19.644 43.909 43.879 43.909z" fill="#365e7d" fill-rule="evenodd"/></g><g><path clip-rule="evenodd" d="m147.967 349.614h171.804 3.515 16.611c3.487 0 6.378-2.863 6.378-6.378v-21.43c0-3.515-2.891-6.378-6.378-6.378h-16.611-195.445c-3.515 0-6.378 2.863-6.378 6.378v21.43c0 3.515 2.863 6.378 6.378 6.378z" fill="#f9f6f6" fill-rule="evenodd"/></g><g><path clip-rule="evenodd" d="m53.093 504.5h144.875v-35.547h-149.948v30.473c0 2.778 2.267 5.074 5.073 5.074z" fill="#f9f6f6" fill-rule="evenodd"/></g><g><path clip-rule="evenodd" d="m253.3 504.5h161.316c2.806 0 5.074-2.296 5.074-5.074v-30.473h-169.905v35.547z" fill="#f9f6f6" fill-rule="evenodd"/></g><g><path clip-rule="evenodd" d="m233.854 281.781c24.264 0 43.908-19.673 43.908-43.909s-19.644-43.909-43.908-43.909c-6.406 0-12.5 1.389-18 3.855 15.278 6.86 25.908 22.224 25.908 40.054s-10.63 33.194-25.908 40.054c5.5 2.466 11.594 3.855 18 3.855z" fill="#2b4d66" fill-rule="evenodd"/></g><g><path clip-rule="evenodd" d="m311.834 349.614h7.937 3.515 16.611c3.487 0 6.378-2.863 6.378-6.378v-21.43c0-3.515-2.891-6.378-6.378-6.378h-16.611-11.452c3.515 0 6.378 2.863 6.378 6.378v21.43c0 3.515-2.863 6.378-6.378 6.378z" fill="#dddaec" fill-rule="evenodd"/></g><g><path clip-rule="evenodd" d="m134.247 225.4 93.569-52.044c6.888-3.628 5.187-3.628 12.075 0l99.579 49.521c11.849 6.265 11.678 9.411 18.652 20.183l32.059 49.295c6.803 11.509 4.96 23.726 4.96 37.134v36.709 102.756h24.547v-63.865-62.873-43.654l-49.095-77.783c-6.86-10.828-5.868-10.517-17.716-16.781l-29.593-15.619-83.393-44.022c-6.888-3.657-5.187-3.657-12.075 0l-112.986 59.641c-11.849 6.265-10.856 5.953-17.716 16.781l-49.094 77.783v42.775l65.592-95.244c7.285-10.573 8.787-14.457 20.635-20.693z" fill="#e5646e" fill-rule="evenodd"/></g><g><path clip-rule="evenodd" d="m233.854 427.057 85.917-77.443h-171.804z" fill="#d09080" fill-rule="evenodd"/></g><g><path clip-rule="evenodd" d="m187.396 468.953 46.458-41.896-85.887-77.443v119.339 35.547z" fill="#d09080" fill-rule="evenodd"/></g><g><path clip-rule="evenodd" d="m147.967 504.5h171.804l-39.429-35.547-46.488-41.896-46.458 41.896z" fill="#d09080" fill-rule="evenodd"/></g><g><path clip-rule="evenodd" d="m280.342 468.953 39.429 35.547v-35.547-119.339l-85.917 77.443z" fill="#d09080" fill-rule="evenodd"/></g><g><path clip-rule="evenodd" d="m147.967 387.174h41.64l-41.64-37.56z" fill="#ce775f" fill-rule="evenodd"/></g><g><path clip-rule="evenodd" d="m189.607 387.174h88.524l41.64-37.56h-171.804z" fill="#ce775f" fill-rule="evenodd"/></g><g><path clip-rule="evenodd" d="m278.131 387.174h41.64v-37.56z" fill="#ce775f" fill-rule="evenodd"/></g><g><path clip-rule="evenodd" d="m114.831 203.998 112.986-59.641c6.888-3.657 5.187-3.657 12.075 0l83.393 44.022 29.593 15.619c11.849 6.265 10.856 5.953 17.716 16.781l49.095 77.783 10.318 16.356c4.479 7.058 14.173 9.609 21.911 5.528 5.783-3.061 8.872-8.986 8.192-14.769-.227-1.928-.879-3.827-1.984-5.613l-62.843-99.525c-7.228-11.452-5.414-11.282-17.915-17.858l-54.084-28.573-77.639-40.989c-13.804-7.285-9.779-7.285-23.584 0l-131.721 69.563c-12.5 6.576-10.686 6.406-17.915 17.858l-62.814 99.525c-1.361 2.154-2.041 4.507-2.098 6.86v.68c.113 5.102 3.146 10.12 8.305 12.841 7.71 4.082 17.433 1.531 21.883-5.528l10.318-16.356 49.095-77.783c6.86-10.828 5.868-10.516 17.717-16.781z" fill="#ffe07d" fill-rule="evenodd"/></g><g><path clip-rule="evenodd" d="m390.068 504.5h24.547c2.806 0 5.074-2.296 5.074-5.074v-30.473h-24.547v30.473c0 2.778-2.268 5.074-5.074 5.074z" fill="#dddaec" fill-rule="evenodd"/></g><g><path d="m413.907 0c-54.104 0-98.122 44.005-98.122 98.096v43.582l-66.639-35.192c-1.742-.919-3.192-1.72-4.427-2.401-9.544-5.266-12.185-5.267-21.731 0-1.234.681-2.685 1.481-4.429 2.402l-131.711 69.557c-11.437 6.017-13.045 7.745-17.878 15.783-.788 1.311-65.698 104.23-65.698 104.23-3.175 5.023-4.077 10.962-2.539 16.722 1.617 6.056 5.84 11.269 11.577 14.295 3.646 1.93 7.582 2.85 11.465 2.85 6.202 0 12.255-2.358 16.745-6.688v65.044c0 4.142 3.358 7.5 7.5 7.5s7.5-3.358 7.5-7.5v-87.541s49.134-77.855 49.652-78.682c2.334-3.729 3.328-5.283 4.496-6.318 1.333-1.181 3.665-2.464 8.665-5.107l113.002-59.649c.801-.425 1.49-.803 2.093-1.133.141-.077.285-.156.428-.234.143.078.287.157.428.234.603.331 1.292.708 2.109 1.142 0 0 118.193 62.413 119.642 63.31.869.538 1.509.995 2.009 1.438 1.167 1.035 2.162 2.589 4.496 6.318.518.827 49.651 78.681 49.651 78.681v160.716h-84.921v-104.341h12.625c7.652 0 13.878-6.226 13.878-13.878v-21.43c0-7.652-6.226-13.878-13.878-13.878h-85.122c-4.142 0-7.5 3.358-7.5 7.5s3.358 7.5 7.5 7.5h84v19.186h-209.81v-19.186h91.2c4.142 0 7.5-3.358 7.5-7.5s-3.358-7.5-7.5-7.5h-92.322c-7.652 0-13.878 6.226-13.878 13.878v21.43c0 7.652 6.226 13.878 13.878 13.878h12.625v104.339h-84.947v-38.563c0-4.142-3.358-7.5-7.5-7.5s-7.5 3.358-7.5 7.5v76.536c0 6.934 5.641 12.574 12.574 12.574h94.873 171.804 3.515 91.33 84.385c7.167 0 12.999-5.832 12.999-12.999v-400.905c.001-54.091-44.004-98.096-98.092-98.096zm-273.44 497h-84.948v-20.546h84.947v20.546zm159.783-139.886-66.382 59.845-66.382-59.845zm-144.783 9.359 67.201 60.584-67.201 60.584zm12.02 130.527 66.382-59.845 66.381 59.845zm144.783-9.359-67.201-60.584 67.201-60.584zm99.919 9.359h-84.919v-20.546h84.919zm53.445-198.823c-.347-.72-.733-1.427-1.166-2.117l-51.945-82.266h84.477v84.383zm-134.848-200.081c0-45.819 37.288-83.096 83.122-83.096 45.816 0 83.092 37.276 83.092 83.096v1.287h-166.214zm0 16.287h166.214v84.412h-93.949s-3.523-5.656-4.312-6.966c-4.831-8.036-6.44-9.766-17.868-15.778l-50.086-26.45v-35.218zm95.246 180.177s-50.275-79.656-50.78-80.463c-4.799-7.665-6.514-9.825-13.281-13.692-.521-.297-118.562-62.672-118.562-62.672-.734-.39-1.367-.736-1.92-1.039-5.101-2.795-7.847-3.32-12.067-1.572-.037.015-.076.034-.113.05-.616.259-1.261.563-1.953.918-.366.188-.745.39-1.137.605-.553.303-1.185.649-1.904 1.031l-112.991 59.644c-11.727 6.2-12.961 7.295-18.868 16.729-.505.807-50.78 80.463-50.78 80.463-.01.016-.016.033-.026.049l-10.294 16.31c-2.375 3.767-7.885 5.096-12.039 2.894-2.06-1.086-3.552-2.873-4.093-4.901-.316-1.184-.446-2.984.729-4.843 0 0 65.037-103.124 65.872-104.512 3.448-5.734 3.448-5.734 12.017-10.243l131.721-69.562c1.838-.97 3.369-1.814 4.672-2.533 1.381-.762 2.8-1.545 3.619-1.918.82.374 2.238 1.156 3.62 1.918 1.303.718 2.833 1.563 4.67 2.532l131.723 69.563c.003.002.007.004.011.006 8.559 4.502 8.559 4.502 12.007 10.238.834 1.388 1.816 3.02 3.058 4.987l62.833 99.509c1.168 1.86 1.034 3.669.716 4.859-.544 2.032-2.032 3.82-4.072 4.899-4.226 2.231-9.645.924-12.069-2.896l-10.292-16.307c-.011-.018-.017-.036-.027-.051zm70.968 202.44h-69.811v-84.411h69.811zm-69.811-99.411v-74.389c7.313 7.042 18.763 8.874 28.238 3.875 5.6-2.965 9.746-8.016 11.438-13.897h30.135v84.412h-69.811z"/><path d="m285.262 237.873c0-28.347-23.062-51.409-51.408-51.409-28.331 0-51.379 23.062-51.379 51.409s23.049 51.409 51.379 51.409c28.347-.001 51.408-23.063 51.408-51.409zm-87.787 0c0-20.076 16.32-36.409 36.379-36.409 20.075 0 36.408 16.333 36.408 36.409s-16.333 36.409-36.408 36.409c-20.059-.001-36.379-16.334-36.379-36.409z"/></g></g></svg>